<?xml version="1.0" encoding="UTF-8"?>
<svg xmlns="http://www.w3.org/2000/svg" xmlns:xlink="http://www.w3.org/1999/xlink" width="37.5pt" height="37.499999pt" viewBox="0 0 37.5 37.499999" version="1.2">
<defs>
<clipPath id="clip1">
  <path d="M 6 2.933594 L 31 2.933594 L 31 34.433594 L 6 34.433594 Z M 6 2.933594 "/>
</clipPath>
<clipPath id="clip2">
  <path d="M 3 33 L 5 33 L 5 34.433594 L 3 34.433594 Z M 3 33 "/>
</clipPath>
<clipPath id="clip3">
  <path d="M 2.652344 32 L 4 32 L 4 34 L 2.652344 34 Z M 2.652344 32 "/>
</clipPath>
<clipPath id="clip4">
  <path d="M 32 2.933594 L 34 2.933594 L 34 4 L 32 4 Z M 32 2.933594 "/>
</clipPath>
<clipPath id="clip5">
  <path d="M 33 3 L 34.902344 3 L 34.902344 6 L 33 6 Z M 33 3 "/>
</clipPath>
</defs>
<g id="surface1">
<g clip-path="url(#clip1)" clip-rule="nonzero">
<path style=" stroke:none;fill-rule:nonzero;fill:rgb(85.099792%,85.099792%,85.099792%);fill-opacity:1;" d="M 28.546875 15.535156 C 27.859375 15.535156 27.277344 15.972656 27.058594 16.582031 L 23.792969 16.582031 L 23.792969 14.484375 L 25.90625 14.484375 C 26.199219 14.484375 26.433594 14.25 26.433594 13.957031 L 26.433594 11.761719 C 27.046875 11.542969 27.492188 10.96875 27.492188 10.285156 C 27.492188 9.414062 26.78125 8.707031 25.90625 8.707031 C 25.03125 8.707031 24.320312 9.414062 24.320312 10.285156 C 24.320312 10.96875 24.765625 11.542969 25.378906 11.761719 L 25.378906 13.433594 L 23.792969 13.433594 L 23.792969 12.382812 C 23.792969 12.09375 23.558594 11.859375 23.265625 11.859375 L 22.210938 11.859375 L 22.210938 9.136719 C 22.824219 8.917969 23.265625 8.34375 23.265625 7.660156 C 23.265625 6.789062 22.554688 6.082031 21.679688 6.082031 C 20.808594 6.082031 20.097656 6.789062 20.097656 7.660156 C 20.097656 8.34375 20.539062 8.917969 21.152344 9.136719 L 21.152344 11.859375 L 19.042969 11.859375 L 19.042969 3.476562 C 19.042969 3.1875 18.804688 2.953125 18.511719 2.953125 C 12 2.953125 6.894531 7.640625 6.894531 13.625 C 6.894531 16.46875 8.03125 20.234375 9.859375 23.453125 C 10.1875 24.027344 10.613281 24.636719 11.066406 25.277344 C 12.027344 26.636719 13.09375 28.164062 13.210938 29.492188 C 12.820312 29.765625 12.574219 30.207031 12.574219 30.742188 C 12.574219 31.109375 12.710938 31.445312 12.925781 31.714844 C 12.625 32.007812 12.441406 32.414062 12.441406 32.878906 C 12.441406 33.746094 13.152344 34.453125 14.023438 34.453125 L 23 34.453125 C 23.875 34.453125 24.585938 33.746094 24.585938 32.839844 C 24.585938 32.398438 24.398438 31.996094 24.101562 31.710938 C 24.316406 31.433594 24.449219 31.089844 24.449219 30.703125 C 24.449219 29.847656 23.769531 29.203125 22.867188 29.203125 L 19.042969 29.203125 L 19.042969 19.207031 L 20.097656 19.207031 L 20.097656 20.785156 C 20.097656 21.074219 20.332031 21.308594 20.625 21.308594 L 22.210938 21.308594 L 22.210938 21.929688 C 21.597656 22.148438 21.152344 22.726562 21.152344 23.410156 C 21.152344 24.277344 21.863281 24.984375 22.738281 24.984375 C 23.609375 24.984375 24.320312 24.277344 24.320312 23.410156 C 24.320312 22.726562 23.878906 22.148438 23.265625 21.929688 L 23.265625 20.785156 C 23.265625 20.492188 23.03125 20.257812 22.738281 20.257812 L 21.152344 20.257812 L 21.152344 19.207031 L 23.265625 19.207031 C 23.558594 19.207031 23.792969 18.972656 23.792969 18.683594 L 23.792969 17.632812 L 27.058594 17.632812 C 27.277344 18.242188 27.859375 18.683594 28.546875 18.683594 C 29.421875 18.683594 30.132812 17.976562 30.132812 17.109375 C 30.132812 16.242188 29.421875 15.535156 28.546875 15.535156 Z M 25.90625 9.757812 C 26.199219 9.757812 26.433594 9.992188 26.433594 10.285156 C 26.433594 10.574219 26.199219 10.808594 25.90625 10.808594 C 25.617188 10.808594 25.378906 10.574219 25.378906 10.285156 C 25.378906 9.992188 25.617188 9.757812 25.90625 9.757812 Z M 11.933594 24.675781 C 11.496094 24.054688 11.082031 23.46875 10.777344 22.933594 C 9.058594 19.914062 7.949219 16.261719 7.949219 13.625 C 7.949219 8.390625 12.316406 4.253906 17.984375 4.011719 L 17.984375 7.679688 C 17.84375 7.691406 17.703125 7.703125 17.546875 7.722656 C 17.324219 7.75 17.140625 7.914062 17.097656 8.136719 L 16.933594 8.894531 C 16.800781 8.925781 16.671875 8.960938 16.539062 9 L 16.011719 8.417969 C 15.859375 8.25 15.621094 8.199219 15.410156 8.285156 C 14.839844 8.527344 14.28125 8.851562 13.75 9.25 C 13.570312 9.386719 13.496094 9.621094 13.566406 9.832031 L 13.808594 10.566406 C 13.707031 10.660156 13.613281 10.757812 13.515625 10.855469 L 12.78125 10.613281 C 12.566406 10.546875 12.328125 10.617188 12.195312 10.796875 C 11.792969 11.324219 11.464844 11.882812 11.222656 12.449219 C 11.132812 12.65625 11.1875 12.898438 11.355469 13.046875 L 11.945312 13.570312 C 11.902344 13.699219 11.867188 13.828125 11.835938 13.960938 L 11.015625 14.121094 C 10.769531 14.171875 10.589844 14.386719 10.589844 14.636719 L 10.589844 16.429688 C 10.589844 16.679688 10.769531 16.894531 11.015625 16.941406 L 11.835938 17.105469 C 11.867188 17.238281 11.902344 17.367188 11.941406 17.496094 L 11.355469 18.019531 C 11.1875 18.167969 11.132812 18.410156 11.222656 18.617188 C 11.464844 19.183594 11.792969 19.742188 12.191406 20.269531 C 12.328125 20.449219 12.566406 20.519531 12.777344 20.453125 L 13.515625 20.210938 C 13.613281 20.308594 13.707031 20.40625 13.808594 20.5 L 13.566406 21.234375 C 13.496094 21.445312 13.570312 21.679688 13.75 21.816406 C 14.28125 22.214844 14.839844 22.539062 15.410156 22.78125 C 15.621094 22.867188 15.859375 22.816406 16.011719 22.648438 L 16.539062 22.066406 C 16.671875 22.105469 16.800781 22.140625 16.933594 22.171875 L 17.09375 22.929688 C 17.140625 23.152344 17.324219 23.316406 17.546875 23.34375 C 17.703125 23.363281 17.84375 23.375 17.984375 23.386719 L 17.984375 29.203125 L 14.242188 29.203125 C 14.027344 27.65625 12.925781 26.082031 11.933594 24.675781 Z M 13.761719 15.535156 C 13.761719 17.960938 15.613281 19.964844 17.984375 20.226562 L 17.984375 22.03125 L 17.898438 21.621094 C 17.851562 21.410156 17.6875 21.25 17.472656 21.210938 C 17.167969 21.15625 16.859375 21.074219 16.554688 20.964844 C 16.496094 20.945312 16.433594 20.933594 16.375 20.933594 C 16.226562 20.933594 16.085938 20.996094 15.980469 21.109375 L 15.484375 21.660156 C 15.214844 21.527344 14.949219 21.371094 14.691406 21.195312 L 14.921875 20.5 C 14.988281 20.296875 14.925781 20.074219 14.757812 19.9375 C 14.519531 19.734375 14.289062 19.507812 14.082031 19.265625 C 13.945312 19.101562 13.71875 19.039062 13.515625 19.105469 L 12.816406 19.335938 C 12.640625 19.074219 12.484375 18.8125 12.351562 18.542969 L 12.90625 18.050781 C 13.066406 17.90625 13.125 17.683594 13.050781 17.480469 C 12.941406 17.179688 12.855469 16.871094 12.800781 16.566406 C 12.765625 16.355469 12.597656 16.1875 12.386719 16.144531 L 11.648438 16 L 11.648438 15.070312 L 12.386719 14.921875 C 12.597656 14.878906 12.761719 14.714844 12.800781 14.5 C 12.855469 14.199219 12.941406 13.890625 13.050781 13.585938 C 13.125 13.382812 13.066406 13.160156 12.90625 13.015625 L 12.351562 12.523438 C 12.484375 12.257812 12.640625 11.992188 12.820312 11.734375 L 13.515625 11.960938 C 13.71875 12.027344 13.945312 11.964844 14.085938 11.804688 C 14.289062 11.5625 14.519531 11.335938 14.761719 11.128906 C 14.925781 10.992188 14.988281 10.769531 14.921875 10.566406 L 14.691406 9.875 C 14.953125 9.699219 15.21875 9.542969 15.488281 9.410156 L 15.984375 9.960938 C 16.125 10.121094 16.351562 10.175781 16.554688 10.105469 C 16.859375 9.996094 17.167969 9.910156 17.476562 9.855469 C 17.6875 9.820312 17.855469 9.65625 17.898438 9.449219 L 17.984375 9.035156 L 17.984375 10.839844 C 15.613281 11.101562 13.761719 13.105469 13.761719 15.535156 Z M 17.984375 11.902344 L 17.984375 19.167969 C 16.195312 18.910156 14.816406 17.382812 14.816406 15.535156 C 14.816406 13.6875 16.195312 12.15625 17.984375 11.902344 Z M 23 33.402344 L 14.023438 33.402344 C 13.734375 33.402344 13.496094 33.167969 13.496094 32.839844 C 13.496094 32.550781 13.734375 32.316406 14.023438 32.316406 L 23 32.316406 C 23.292969 32.316406 23.53125 32.550781 23.53125 32.878906 C 23.53125 33.167969 23.292969 33.402344 23 33.402344 Z M 22.867188 30.253906 C 23.121094 30.253906 23.394531 30.394531 23.394531 30.742188 C 23.394531 31.03125 23.15625 31.265625 22.867188 31.265625 L 14.160156 31.265625 C 13.867188 31.265625 13.632812 31.03125 13.632812 30.703125 C 13.632812 30.394531 13.90625 30.253906 14.160156 30.253906 Z M 22.738281 22.882812 C 23.027344 22.882812 23.265625 23.117188 23.265625 23.410156 C 23.265625 23.699219 23.027344 23.933594 22.738281 23.933594 C 22.445312 23.933594 22.210938 23.699219 22.210938 23.410156 C 22.210938 23.117188 22.445312 22.882812 22.738281 22.882812 Z M 21.679688 7.132812 C 21.972656 7.132812 22.210938 7.367188 22.210938 7.660156 C 22.210938 7.949219 21.972656 8.183594 21.679688 8.183594 C 21.390625 8.183594 21.152344 7.949219 21.152344 7.660156 C 21.152344 7.367188 21.390625 7.132812 21.679688 7.132812 Z M 22.738281 18.160156 L 19.042969 18.160156 L 19.042969 12.910156 L 22.738281 12.910156 Z M 28.546875 17.632812 C 28.257812 17.632812 28.019531 17.398438 28.019531 17.109375 C 28.019531 16.820312 28.257812 16.582031 28.546875 16.582031 C 28.839844 16.582031 29.074219 16.820312 29.074219 17.109375 C 29.074219 17.398438 28.839844 17.632812 28.546875 17.632812 Z M 28.546875 17.632812 "/>
</g>
<path style=" stroke:none;fill-rule:nonzero;fill:rgb(85.099792%,85.099792%,85.099792%);fill-opacity:1;" d="M 23.113281 27.976562 L 24.09375 28.363281 C 24.207031 28.078125 24.351562 27.78125 24.53125 27.457031 L 23.605469 26.949219 C 23.402344 27.3125 23.242188 27.648438 23.113281 27.976562 Z M 23.113281 27.976562 "/>
<path style=" stroke:none;fill-rule:nonzero;fill:rgb(85.099792%,85.099792%,85.099792%);fill-opacity:1;" d="M 25.660156 25.699219 L 24.792969 25.101562 C 24.585938 25.398438 24.378906 25.699219 24.179688 26.003906 L 25.066406 26.574219 C 25.257812 26.28125 25.460938 25.988281 25.660156 25.699219 Z M 25.660156 25.699219 "/>
<path style=" stroke:none;fill-rule:nonzero;fill:rgb(85.099792%,85.099792%,85.099792%);fill-opacity:1;" d="M 26.890625 23.914062 L 25.996094 23.355469 C 25.816406 23.636719 25.621094 23.925781 25.410156 24.222656 L 26.277344 24.824219 C 26.496094 24.511719 26.703125 24.207031 26.890625 23.914062 Z M 26.890625 23.914062 "/>
<path style=" stroke:none;fill-rule:nonzero;fill:rgb(85.099792%,85.099792%,85.099792%);fill-opacity:1;" d="M 27.941406 21.976562 L 26.988281 21.523438 C 26.835938 21.839844 26.675781 22.152344 26.511719 22.457031 L 27.441406 22.953125 C 27.617188 22.632812 27.78125 22.304688 27.941406 21.976562 Z M 27.941406 21.976562 "/>
<path style=" stroke:none;fill-rule:nonzero;fill:rgb(85.099792%,85.099792%,85.099792%);fill-opacity:1;" d="M 28.800781 19.964844 L 27.8125 19.597656 C 27.6875 19.921875 27.558594 20.246094 27.417969 20.570312 L 28.390625 20.980469 C 28.535156 20.644531 28.671875 20.304688 28.800781 19.964844 Z M 28.800781 19.964844 "/>
<path style=" stroke:none;fill-rule:nonzero;fill:rgb(85.099792%,85.099792%,85.099792%);fill-opacity:1;" d="M 30.085938 14.640625 C 30.117188 14.289062 30.132812 13.949219 30.132812 13.625 L 30.128906 13.523438 L 29.074219 13.53125 L 29.074219 13.625 C 29.074219 13.917969 29.0625 14.230469 29.035156 14.550781 Z M 30.085938 14.640625 "/>
<path style=" stroke:none;fill-rule:nonzero;fill:rgb(85.099792%,85.099792%,85.099792%);fill-opacity:1;" d="M 28.832031 11.527344 C 28.910156 11.851562 28.96875 12.1875 29.007812 12.523438 L 30.058594 12.398438 C 30.011719 12.023438 29.945312 11.652344 29.863281 11.289062 Z M 28.832031 11.527344 "/>
<path style=" stroke:none;fill-rule:nonzero;fill:rgb(85.099792%,85.099792%,85.099792%);fill-opacity:1;" d="M 28.152344 9.625 C 28.300781 9.929688 28.433594 10.242188 28.546875 10.558594 L 29.542969 10.207031 C 29.417969 9.851562 29.269531 9.503906 29.101562 9.164062 Z M 28.152344 9.625 "/>
<path style=" stroke:none;fill-rule:nonzero;fill:rgb(85.099792%,85.099792%,85.099792%);fill-opacity:1;" d="M 27.066406 7.917969 C 27.277344 8.183594 27.476562 8.460938 27.65625 8.742188 L 28.550781 8.183594 C 28.351562 7.867188 28.128906 7.558594 27.894531 7.265625 Z M 27.066406 7.917969 "/>
<path style=" stroke:none;fill-rule:nonzero;fill:rgb(85.099792%,85.099792%,85.099792%);fill-opacity:1;" d="M 25.640625 6.472656 C 25.898438 6.6875 26.152344 6.917969 26.390625 7.160156 L 27.144531 6.421875 C 26.878906 6.15625 26.601562 5.902344 26.3125 5.664062 Z M 25.640625 6.472656 "/>
<path style=" stroke:none;fill-rule:nonzero;fill:rgb(85.099792%,85.099792%,85.099792%);fill-opacity:1;" d="M 25.40625 4.992188 C 25.097656 4.785156 24.773438 4.589844 24.441406 4.410156 L 23.941406 5.335938 C 24.242188 5.496094 24.539062 5.675781 24.820312 5.863281 Z M 25.40625 4.992188 "/>
<path style=" stroke:none;fill-rule:nonzero;fill:rgb(85.099792%,85.099792%,85.099792%);fill-opacity:1;" d="M 23.429688 3.929688 C 23.089844 3.785156 22.734375 3.65625 22.375 3.539062 L 22.054688 4.542969 C 22.382812 4.644531 22.707031 4.765625 23.015625 4.894531 Z M 23.429688 3.929688 "/>
<path style=" stroke:none;fill-rule:nonzero;fill:rgb(85.099792%,85.099792%,85.099792%);fill-opacity:1;" d="M 21.289062 3.25 C 20.925781 3.171875 20.554688 3.105469 20.183594 3.058594 L 20.046875 4.101562 C 20.386719 4.144531 20.730469 4.203125 21.058594 4.277344 Z M 21.289062 3.25 "/>
<path style=" stroke:none;fill-rule:nonzero;fill:rgb(85.099792%,85.099792%,85.099792%);fill-opacity:1;" d="M 3.726562 31.285156 L 4.78125 31.285156 L 4.78125 32.332031 L 3.726562 32.332031 Z M 3.726562 31.285156 "/>
<g clip-path="url(#clip2)" clip-rule="nonzero">
<path style=" stroke:none;fill-rule:nonzero;fill:rgb(85.099792%,85.099792%,85.099792%);fill-opacity:1;" d="M 3.726562 33.382812 L 4.78125 33.382812 L 4.78125 34.433594 L 3.726562 34.433594 Z M 3.726562 33.382812 "/>
</g>
<path style=" stroke:none;fill-rule:nonzero;fill:rgb(85.099792%,85.099792%,85.099792%);fill-opacity:1;" d="M 4.78125 32.332031 L 5.839844 32.332031 L 5.839844 33.382812 L 4.78125 33.382812 Z M 4.78125 32.332031 "/>
<g clip-path="url(#clip3)" clip-rule="nonzero">
<path style=" stroke:none;fill-rule:nonzero;fill:rgb(85.099792%,85.099792%,85.099792%);fill-opacity:1;" d="M 2.667969 32.332031 L 3.726562 32.332031 L 3.726562 33.382812 L 2.667969 33.382812 Z M 2.667969 32.332031 "/>
</g>
<g clip-path="url(#clip4)" clip-rule="nonzero">
<path style=" stroke:none;fill-rule:nonzero;fill:rgb(85.099792%,85.099792%,85.099792%);fill-opacity:1;" d="M 32.773438 2.933594 L 33.828125 2.933594 L 33.828125 3.984375 L 32.773438 3.984375 Z M 32.773438 2.933594 "/>
</g>
<path style=" stroke:none;fill-rule:nonzero;fill:rgb(85.099792%,85.099792%,85.099792%);fill-opacity:1;" d="M 32.773438 5.035156 L 33.828125 5.035156 L 33.828125 6.082031 L 32.773438 6.082031 Z M 32.773438 5.035156 "/>
<g clip-path="url(#clip5)" clip-rule="nonzero">
<path style=" stroke:none;fill-rule:nonzero;fill:rgb(85.099792%,85.099792%,85.099792%);fill-opacity:1;" d="M 33.828125 3.984375 L 34.882812 3.984375 L 34.882812 5.035156 L 33.828125 5.035156 Z M 33.828125 3.984375 "/>
</g>
<path style=" stroke:none;fill-rule:nonzero;fill:rgb(85.099792%,85.099792%,85.099792%);fill-opacity:1;" d="M 31.714844 3.984375 L 32.773438 3.984375 L 32.773438 5.035156 L 31.714844 5.035156 Z M 31.714844 3.984375 "/>
</g>
</svg>
