<?xml version="1.0" encoding="UTF-8"?>
<svg xmlns="http://www.w3.org/2000/svg" xmlns:xlink="http://www.w3.org/1999/xlink" width="375pt" height="374.999991pt" viewBox="0 0 375 374.999991" version="1.2">
<defs>
<clipPath id="clip1">
  <path d="M 16.167969 16.167969 L 358.917969 16.167969 L 358.917969 358.917969 L 16.167969 358.917969 Z M 16.167969 16.167969 "/>
</clipPath>
</defs>
<g id="surface1">
<g clip-path="url(#clip1)" clip-rule="nonzero">
<path style=" stroke:none;fill-rule:nonzero;fill:rgb(0%,0%,0%);fill-opacity:1;" d="M 187.589844 16.167969 C 92.921875 16.167969 16.167969 92.921875 16.167969 187.589844 C 16.167969 219.746094 25.199219 249.730469 40.605469 275.449219 L 17.699219 359.011719 L 103.050781 336.605469 C 128.011719 350.796875 156.824219 359.011719 187.589844 359.011719 C 282.257812 359.011719 359.011719 282.257812 359.011719 187.589844 C 359.011719 92.921875 282.257812 16.167969 187.589844 16.167969 Z M 128.914062 107.625 C 131.699219 107.625 134.5625 107.609375 137.03125 107.738281 C 140.089844 107.808594 143.417969 108.03125 146.601562 115.074219 C 150.386719 123.445312 158.628906 144.445312 159.6875 146.574219 C 160.746094 148.703125 161.492188 151.210938 160.023438 153.996094 C 158.621094 156.851562 157.894531 158.582031 155.835938 161.109375 C 153.707031 163.566406 151.375 166.621094 149.449219 168.476562 C 147.320312 170.605469 145.121094 172.9375 147.578125 177.179688 C 150.035156 181.425781 158.570312 195.332031 171.183594 206.5625 C 187.394531 221.046875 201.074219 225.496094 205.332031 227.625 C 209.589844 229.753906 212.054688 229.421875 214.511719 226.566406 C 217.039062 223.78125 225.132812 214.222656 227.988281 209.964844 C 230.773438 205.707031 233.617188 206.445312 237.476562 207.84375 C 241.390625 209.242188 262.261719 219.527344 266.519531 221.65625 C 270.777344 223.785156 273.566406 224.835938 274.636719 226.566406 C 275.738281 228.351562 275.738281 236.851562 272.210938 246.765625 C 268.683594 256.664062 251.355469 266.238281 243.585938 266.910156 C 235.742188 267.636719 228.421875 270.433594 192.609375 256.335938 C 149.410156 239.320312 122.167969 195.078125 120.039062 192.21875 C 117.914062 189.433594 102.742188 169.214844 102.742188 148.359375 C 102.742188 127.433594 113.714844 117.183594 117.558594 112.925781 C 121.472656 108.667969 126.054688 107.625 128.914062 107.625 Z M 128.914062 107.625 "/>
</g>
</g>
</svg>
